<svg xmlns="http://www.w3.org/2000/svg" xmlns:xlink="http://www.w3.org/1999/xlink" width="500" zoomAndPan="magnify" viewBox="0 0 375 225" height="300" preserveAspectRatio="xMidYMid meet" version="1.2"><defs/><g id="1db1b86993"><path style=" stroke:none;fill-rule:nonzero;fill:#3b3b3b;fill-opacity:1;" d="M 4.667969 169.925781 L 122.714844 169.925781 L 122.714844 186.632812 L 4.667969 186.632812 Z M 4.667969 169.925781 "/><g style="fill:#3b3b3b;fill-opacity:1;"><g transform="translate(4.667216, 161.236327)"><path style="stroke:none" d="M 58.9375 -114.5 C 66.613281 -114.5 73.785156 -113 80.453125 -110 C 87.117188 -107.007812 92.988281 -102.832031 98.0625 -97.46875 C 103.144531 -92.113281 107.125 -85.929688 110 -78.921875 C 112.882812 -71.921875 114.328125 -64.414062 114.328125 -56.40625 C 114.328125 -48.5 112.882812 -41.046875 110 -34.046875 C 107.125 -27.046875 103.144531 -20.863281 98.0625 -15.5 C 92.988281 -10.132812 87.117188 -5.953125 80.453125 -2.953125 C 73.785156 0.0351562 66.613281 1.53125 58.9375 1.53125 C 51.375 1.53125 44.234375 0.0351562 37.515625 -2.953125 C 30.796875 -5.953125 24.894531 -10.132812 19.8125 -15.5 C 14.726562 -20.863281 10.75 -27.046875 7.875 -34.046875 C 5 -41.046875 3.5625 -48.5 3.5625 -56.40625 C 3.5625 -64.414062 5 -71.921875 7.875 -78.921875 C 10.75 -85.929688 14.726562 -92.113281 19.8125 -97.46875 C 24.894531 -102.832031 30.796875 -107.007812 37.515625 -110 C 44.234375 -113 51.375 -114.5 58.9375 -114.5 Z M 96.375 -56.40625 C 96.375 -63.851562 94.679688 -70.625 91.296875 -76.71875 C 87.910156 -82.820312 83.394531 -87.679688 77.75 -91.296875 C 72.101562 -94.910156 65.832031 -96.71875 58.9375 -96.71875 C 52.050781 -96.71875 45.785156 -94.910156 40.140625 -91.296875 C 34.492188 -87.679688 29.976562 -82.820312 26.59375 -76.71875 C 23.207031 -70.625 21.515625 -63.851562 21.515625 -56.40625 C 21.515625 -49.0625 23.207031 -42.335938 26.59375 -36.234375 C 29.976562 -30.140625 34.492188 -25.285156 40.140625 -21.671875 C 45.785156 -18.066406 52.050781 -16.265625 58.9375 -16.265625 C 65.832031 -16.265625 72.101562 -18.066406 77.75 -21.671875 C 83.394531 -25.285156 87.910156 -30.140625 91.296875 -36.234375 C 94.679688 -42.335938 96.375 -49.0625 96.375 -56.40625 Z M 96.375 -56.40625 "/></g></g><g style="fill:#3b3b3b;fill-opacity:1;"><g transform="translate(122.714462, 161.236327)"><path style="stroke:none" d="M 69.953125 -58.4375 C 68.253906 -56.625 65.851562 -54.703125 62.75 -52.671875 C 59.644531 -50.640625 55.722656 -49.285156 50.984375 -48.609375 L 89.265625 -0.171875 L 68.265625 -0.171875 L 30.3125 -48.109375 L 25.234375 -48.109375 L 25.234375 -0.171875 L 7.28125 -0.171875 L 7.28125 -112.796875 L 44.546875 -112.796875 C 54.253906 -112.796875 62.382812 -109.351562 68.9375 -102.46875 C 71.875 -99.3125 74.128906 -95.785156 75.703125 -91.890625 C 77.285156 -87.992188 78.078125 -84.007812 78.078125 -79.9375 C 78.078125 -71.582031 75.367188 -64.414062 69.953125 -58.4375 Z M 60.296875 -79.9375 C 60.296875 -83.550781 58.851562 -86.96875 55.96875 -90.1875 C 53.09375 -93.40625 49.285156 -95.015625 44.546875 -95.015625 L 25.234375 -95.015625 L 25.234375 -66.0625 L 44.546875 -66.0625 C 48.273438 -66.0625 51.210938 -66.648438 53.359375 -67.828125 C 55.503906 -69.015625 57.054688 -70.453125 58.015625 -72.140625 C 58.972656 -73.835938 59.59375 -75.421875 59.875 -76.890625 C 60.15625 -78.359375 60.296875 -79.375 60.296875 -79.9375 Z M 60.296875 -79.9375 "/></g></g><g style="fill:#3b3b3b;fill-opacity:1;"><g transform="translate(200.621285, 161.236327)"><path style="stroke:none" d="M 46.921875 -73.515625 L 71.640625 -112.640625 L 92.984375 -112.640625 L 55.890625 -54.203125 L 55.890625 -0.171875 L 38.109375 -0.171875 L 38.109375 -54.203125 L 1.1875 -112.640625 L 22.1875 -112.640625 Z M 46.921875 -73.515625 "/></g></g><g style="fill:#3b3b3b;fill-opacity:1;"><g transform="translate(275.479129, 161.236327)"><path style="stroke:none" d="M 39.125 -112.640625 L 55.21875 -112.640625 L 93.671875 -0.171875 L 75.03125 -0.171875 L 66.5625 -24.890625 L 28.28125 -24.890625 L 19.8125 -0.171875 L 1.1875 -0.171875 Z M 60.96875 -41.15625 L 47.25 -81.125 L 33.703125 -41.15625 Z M 60.96875 -41.15625 "/></g></g></g></svg>